<svg xmlns="http://www.w3.org/2000/svg" viewBox="0 0 760 294" width="760" height="294" role="img" aria-labelledby="t d" font-family="system-ui, -apple-system, 'Segoe UI', sans-serif">
<title id="t">An ISOM worked example</title>
<desc id="d">A single diamond of High Dirt, value 2, on Dirt, value 1. The diamonds around it take the cliff's values: 17 to 20 for its four edges and 21 to 24 for its four corners.</desc>
<rect width="760" height="294" rx="10" fill="#12151b"/>
<defs><clipPath id="win"><rect x="24" y="50" width="432" height="216"/></clipPath></defs>
<text x="24" y="30" font-size="15" fill="#e6e8ee" text-anchor="start" font-weight="600">One diamond of High Dirt painted on Dirt, Jungle World</text>
<g clip-path="url(#win)">
<polygon points="-105.6,-14.8 -192,-14.8 -105.6,-58" fill="#3f6aa6"/><polygon points="-105.6,-14.8 -105.6,-58 -19.2,-14.8" fill="#3f6aa6"/><polygon points="-105.6,-14.8 -19.2,-14.8 -105.6,28.4" fill="#3f6aa6"/><polygon points="-105.6,-14.8 -105.6,28.4 -192,-14.8" fill="#3f6aa6"/>
<polygon points="-105.6,-58 -19.2,-14.8 -105.6,28.4 -192,-14.8" fill="none" stroke="#e6e8ee" stroke-opacity="0.3"/>
<polygon points="67.2,-14.8 -19.2,-14.8 67.2,-58" fill="#3f6aa6"/><polygon points="67.2,-14.8 67.2,-58 153.6,-14.8" fill="#3f6aa6"/><polygon points="67.2,-14.8 153.6,-14.8 67.2,28.4" fill="#3f6aa6"/><polygon points="67.2,-14.8 67.2,28.4 -19.2,-14.8" fill="#3f6aa6"/>
<polygon points="67.2,-58 153.6,-14.8 67.2,28.4 -19.2,-14.8" fill="none" stroke="#e6e8ee" stroke-opacity="0.3"/>
<polygon points="240,-14.8 153.6,-14.8 240,-58" fill="#3f6aa6"/><polygon points="240,-14.8 240,-58 326.4,-14.8" fill="#3f6aa6"/><polygon points="240,-14.8 326.4,-14.8 240,28.4" fill="#3f6aa6"/><polygon points="240,-14.8 240,28.4 153.6,-14.8" fill="#3f6aa6"/>
<polygon points="240,-58 326.4,-14.8 240,28.4 153.6,-14.8" fill="none" stroke="#e6e8ee" stroke-opacity="0.3"/>
<polygon points="412.8,-14.8 326.4,-14.8 412.8,-58" fill="#3f6aa6"/><polygon points="412.8,-14.8 412.8,-58 499.2,-14.8" fill="#3f6aa6"/><polygon points="412.8,-14.8 499.2,-14.8 412.8,28.4" fill="#3f6aa6"/><polygon points="412.8,-14.8 412.8,28.4 326.4,-14.8" fill="#3f6aa6"/>
<polygon points="412.8,-58 499.2,-14.8 412.8,28.4 326.4,-14.8" fill="none" stroke="#e6e8ee" stroke-opacity="0.3"/>
<polygon points="-19.2,28.4 -105.6,28.4 -19.2,-14.8" fill="#3f6aa6"/><polygon points="-19.2,28.4 -19.2,-14.8 67.2,28.4" fill="#3f6aa6"/><polygon points="-19.2,28.4 67.2,28.4 -19.2,71.6" fill="#3f6aa6"/><polygon points="-19.2,28.4 -19.2,71.6 -105.6,28.4" fill="#3f6aa6"/>
<polygon points="-19.2,-14.8 67.2,28.4 -19.2,71.6 -105.6,28.4" fill="none" stroke="#e6e8ee" stroke-opacity="0.3"/>
<polygon points="153.6,28.4 67.2,28.4 153.6,-14.8" fill="#3f6aa6"/><polygon points="153.6,28.4 153.6,-14.8 240,28.4" fill="#3f6aa6"/><polygon points="153.6,28.4 240,28.4 153.6,71.6" fill="#3f6aa6"/><polygon points="153.6,28.4 153.6,71.6 67.2,28.4" fill="#3f6aa6"/>
<polygon points="153.6,-14.8 240,28.4 153.6,71.6 67.2,28.4" fill="none" stroke="#e6e8ee" stroke-opacity="0.3"/>
<polygon points="326.4,28.4 240,28.4 326.4,-14.8" fill="#3f6aa6"/><polygon points="326.4,28.4 326.4,-14.8 412.8,28.4" fill="#3f6aa6"/><polygon points="326.4,28.4 412.8,28.4 326.4,71.6" fill="#3f6aa6"/><polygon points="326.4,28.4 326.4,71.6 240,28.4" fill="#3f6aa6"/>
<polygon points="326.4,-14.8 412.8,28.4 326.4,71.6 240,28.4" fill="none" stroke="#e6e8ee" stroke-opacity="0.3"/>
<polygon points="499.2,28.4 412.8,28.4 499.2,-14.8" fill="#3f6aa6"/><polygon points="499.2,28.4 499.2,-14.8 585.6,28.4" fill="#3f6aa6"/><polygon points="499.2,28.4 585.6,28.4 499.2,71.6" fill="#3f6aa6"/><polygon points="499.2,28.4 499.2,71.6 412.8,28.4" fill="#3f6aa6"/>
<polygon points="499.2,-14.8 585.6,28.4 499.2,71.6 412.8,28.4" fill="none" stroke="#e6e8ee" stroke-opacity="0.3"/>
<polygon points="-105.6,71.6 -192,71.6 -105.6,28.4" fill="#3f6aa6"/><polygon points="-105.6,71.6 -105.6,28.4 -19.2,71.6" fill="#3f6aa6"/><polygon points="-105.6,71.6 -19.2,71.6 -105.6,114.8" fill="#3f6aa6"/><polygon points="-105.6,71.6 -105.6,114.8 -192,71.6" fill="#3f6aa6"/>
<polygon points="-105.6,28.4 -19.2,71.6 -105.6,114.8 -192,71.6" fill="none" stroke="#e6e8ee" stroke-opacity="0.3"/>
<polygon points="67.2,71.6 -19.2,71.6 67.2,28.4" fill="#3f6aa6"/><polygon points="67.2,71.6 67.2,28.4 153.6,71.6" fill="#3f6aa6"/><polygon points="67.2,71.6 153.6,71.6 67.2,114.8" fill="#3f6aa6"/><polygon points="67.2,71.6 67.2,114.8 -19.2,71.6" fill="#3f6aa6"/>
<polygon points="67.2,28.4 153.6,71.6 67.2,114.8 -19.2,71.6" fill="none" stroke="#e6e8ee" stroke-opacity="0.3"/>
<polygon points="240,71.6 153.6,71.6 240,28.4" fill="#3f6aa6"/><polygon points="240,71.6 240,28.4 326.4,71.6" fill="#3f6aa6"/><polygon points="240,71.6 326.4,71.6 283.2,93.2 240,71.6" fill="#3f6aa6"/><polygon points="240,71.6 240,71.6 283.2,93.2 240,114.8" fill="#c9963c"/><polygon points="240,71.6 240,71.6 196.8,93.2 153.6,71.6" fill="#3f6aa6"/><polygon points="240,71.6 240,114.8 196.8,93.2 240,71.6" fill="#c9963c"/>
<polygon points="240,28.4 326.4,71.6 240,114.8 153.6,71.6" fill="none" stroke="#e6e8ee" stroke-opacity="0.3"/>
<polygon points="412.8,71.6 326.4,71.6 412.8,28.4" fill="#3f6aa6"/><polygon points="412.8,71.6 412.8,28.4 499.2,71.6" fill="#3f6aa6"/><polygon points="412.8,71.6 499.2,71.6 412.8,114.8" fill="#3f6aa6"/><polygon points="412.8,71.6 412.8,114.8 326.4,71.6" fill="#3f6aa6"/>
<polygon points="412.8,28.4 499.2,71.6 412.8,114.8 326.4,71.6" fill="none" stroke="#e6e8ee" stroke-opacity="0.3"/>
<polygon points="-19.2,114.8 -105.6,114.8 -19.2,71.6" fill="#3f6aa6"/><polygon points="-19.2,114.8 -19.2,71.6 67.2,114.8" fill="#3f6aa6"/><polygon points="-19.2,114.8 67.2,114.8 -19.2,158" fill="#3f6aa6"/><polygon points="-19.2,114.8 -19.2,158 -105.6,114.8" fill="#3f6aa6"/>
<polygon points="-19.2,71.6 67.2,114.8 -19.2,158 -105.6,114.8" fill="none" stroke="#e6e8ee" stroke-opacity="0.3"/>
<polygon points="153.6,114.8 67.2,114.8 153.6,71.6" fill="#3f6aa6"/><polygon points="153.6,114.8 153.6,71.6 196.8,93.2 153.6,114.8" fill="#3f6aa6"/><polygon points="153.6,114.8 153.6,114.8 196.8,93.2 240,114.8" fill="#c9963c"/><polygon points="153.6,114.8 240,114.8 153.6,158" fill="#c9963c"/><polygon points="153.6,114.8 153.6,114.8 110.4,136.4 67.2,114.8" fill="#3f6aa6"/><polygon points="153.6,114.8 153.6,158 110.4,136.4 153.6,114.8" fill="#c9963c"/>
<polygon points="153.6,71.6 240,114.8 153.6,158 67.2,114.8" fill="none" stroke="#e6e8ee" stroke-opacity="0.3"/>
<polygon points="326.4,114.8 326.4,114.8 283.2,93.2 326.4,71.6" fill="#3f6aa6"/><polygon points="326.4,114.8 240,114.8 283.2,93.2 326.4,114.8" fill="#c9963c"/><polygon points="326.4,114.8 326.4,71.6 412.8,114.8" fill="#3f6aa6"/><polygon points="326.4,114.8 412.8,114.8 369.6,136.4 326.4,114.8" fill="#3f6aa6"/><polygon points="326.4,114.8 326.4,114.8 369.6,136.4 326.4,158" fill="#c9963c"/><polygon points="326.4,114.8 326.4,158 240,114.8" fill="#c9963c"/>
<polygon points="326.4,71.6 412.8,114.8 326.4,158 240,114.8" fill="none" stroke="#e6e8ee" stroke-opacity="0.3"/>
<polygon points="499.2,114.8 412.8,114.8 499.2,71.6" fill="#3f6aa6"/><polygon points="499.2,114.8 499.2,71.6 585.6,114.8" fill="#3f6aa6"/><polygon points="499.2,114.8 585.6,114.8 499.2,158" fill="#3f6aa6"/><polygon points="499.2,114.8 499.2,158 412.8,114.8" fill="#3f6aa6"/>
<polygon points="499.2,71.6 585.6,114.8 499.2,158 412.8,114.8" fill="none" stroke="#e6e8ee" stroke-opacity="0.3"/>
<polygon points="-105.6,158 -192,158 -105.6,114.8" fill="#3f6aa6"/><polygon points="-105.6,158 -105.6,114.8 -19.2,158" fill="#3f6aa6"/><polygon points="-105.6,158 -19.2,158 -105.6,201.2" fill="#3f6aa6"/><polygon points="-105.6,158 -105.6,201.2 -192,158" fill="#3f6aa6"/>
<polygon points="-105.6,114.8 -19.2,158 -105.6,201.2 -192,158" fill="none" stroke="#e6e8ee" stroke-opacity="0.3"/>
<polygon points="67.2,158 -19.2,158 67.2,114.8" fill="#3f6aa6"/><polygon points="67.2,158 67.2,114.8 110.4,136.4 67.2,158" fill="#3f6aa6"/><polygon points="67.2,158 67.2,158 110.4,136.4 153.6,158" fill="#c9963c"/><polygon points="67.2,158 67.2,158 110.4,179.6 67.2,201.2" fill="#3f6aa6"/><polygon points="67.2,158 153.6,158 110.4,179.6 67.2,158" fill="#c9963c"/><polygon points="67.2,158 67.2,201.2 -19.2,158" fill="#3f6aa6"/>
<polygon points="67.2,114.8 153.6,158 67.2,201.2 -19.2,158" fill="none" stroke="#e6e8ee" stroke-opacity="0.3"/>
<polygon points="240,158 153.6,158 240,114.8" fill="#c9963c"/><polygon points="240,158 240,114.8 326.4,158" fill="#c9963c"/><polygon points="240,158 326.4,158 240,201.2" fill="#c9963c"/><polygon points="240,158 240,201.2 153.6,158" fill="#c9963c"/>
<polygon points="240,114.8 326.4,158 240,201.2 153.6,158" fill="none" stroke="#e6e8ee" stroke-opacity="0.3"/>
<polygon points="412.8,158 412.8,158 369.6,136.4 412.8,114.8" fill="#3f6aa6"/><polygon points="412.8,158 326.4,158 369.6,136.4 412.8,158" fill="#c9963c"/><polygon points="412.8,158 412.8,114.8 499.2,158" fill="#3f6aa6"/><polygon points="412.8,158 499.2,158 412.8,201.2" fill="#3f6aa6"/><polygon points="412.8,158 412.8,201.2 369.6,179.6 412.8,158" fill="#3f6aa6"/><polygon points="412.8,158 412.8,158 369.6,179.6 326.4,158" fill="#c9963c"/>
<polygon points="412.8,114.8 499.2,158 412.8,201.2 326.4,158" fill="none" stroke="#e6e8ee" stroke-opacity="0.3"/>
<polygon points="-19.2,201.2 -105.6,201.2 -19.2,158" fill="#3f6aa6"/><polygon points="-19.2,201.2 -19.2,158 67.2,201.2" fill="#3f6aa6"/><polygon points="-19.2,201.2 67.2,201.2 -19.2,244.4" fill="#3f6aa6"/><polygon points="-19.2,201.2 -19.2,244.4 -105.6,201.2" fill="#3f6aa6"/>
<polygon points="-19.2,158 67.2,201.2 -19.2,244.4 -105.6,201.2" fill="none" stroke="#e6e8ee" stroke-opacity="0.3"/>
<polygon points="153.6,201.2 67.2,201.2 110.4,179.6 153.6,201.2" fill="#3f6aa6"/><polygon points="153.6,201.2 153.6,201.2 110.4,179.6 153.6,158" fill="#c9963c"/><polygon points="153.6,201.2 153.6,158 240,201.2" fill="#c9963c"/><polygon points="153.6,201.2 153.6,201.2 196.8,222.8 153.6,244.4" fill="#3f6aa6"/><polygon points="153.6,201.2 240,201.2 196.8,222.8 153.6,201.2" fill="#c9963c"/><polygon points="153.6,201.2 153.6,244.4 67.2,201.2" fill="#3f6aa6"/>
<polygon points="153.6,158 240,201.2 153.6,244.4 67.2,201.2" fill="none" stroke="#e6e8ee" stroke-opacity="0.3"/>
<polygon points="326.4,201.2 240,201.2 326.4,158" fill="#c9963c"/><polygon points="326.4,201.2 326.4,201.2 369.6,179.6 412.8,201.2" fill="#3f6aa6"/><polygon points="326.4,201.2 326.4,158 369.6,179.6 326.4,201.2" fill="#c9963c"/><polygon points="326.4,201.2 412.8,201.2 326.4,244.4" fill="#3f6aa6"/><polygon points="326.4,201.2 326.4,244.4 283.2,222.8 326.4,201.2" fill="#3f6aa6"/><polygon points="326.4,201.2 326.4,201.2 283.2,222.8 240,201.2" fill="#c9963c"/>
<polygon points="326.4,158 412.8,201.2 326.4,244.4 240,201.2" fill="none" stroke="#e6e8ee" stroke-opacity="0.3"/>
<polygon points="499.2,201.2 412.8,201.2 499.2,158" fill="#3f6aa6"/><polygon points="499.2,201.2 499.2,158 585.6,201.2" fill="#3f6aa6"/><polygon points="499.2,201.2 585.6,201.2 499.2,244.4" fill="#3f6aa6"/><polygon points="499.2,201.2 499.2,244.4 412.8,201.2" fill="#3f6aa6"/>
<polygon points="499.2,158 585.6,201.2 499.2,244.4 412.8,201.2" fill="none" stroke="#e6e8ee" stroke-opacity="0.3"/>
<polygon points="-105.6,244.4 -192,244.4 -105.6,201.2" fill="#3f6aa6"/><polygon points="-105.6,244.4 -105.6,201.2 -19.2,244.4" fill="#3f6aa6"/><polygon points="-105.6,244.4 -19.2,244.4 -105.6,287.6" fill="#3f6aa6"/><polygon points="-105.6,244.4 -105.6,287.6 -192,244.4" fill="#3f6aa6"/>
<polygon points="-105.6,201.2 -19.2,244.4 -105.6,287.6 -192,244.4" fill="none" stroke="#e6e8ee" stroke-opacity="0.3"/>
<polygon points="67.2,244.4 -19.2,244.4 67.2,201.2" fill="#3f6aa6"/><polygon points="67.2,244.4 67.2,201.2 153.6,244.4" fill="#3f6aa6"/><polygon points="67.2,244.4 153.6,244.4 67.2,287.6" fill="#3f6aa6"/><polygon points="67.2,244.4 67.2,287.6 -19.2,244.4" fill="#3f6aa6"/>
<polygon points="67.2,201.2 153.6,244.4 67.2,287.6 -19.2,244.4" fill="none" stroke="#e6e8ee" stroke-opacity="0.3"/>
<polygon points="240,244.4 153.6,244.4 196.8,222.8 240,244.4" fill="#3f6aa6"/><polygon points="240,244.4 240,244.4 196.8,222.8 240,201.2" fill="#c9963c"/><polygon points="240,244.4 240,244.4 283.2,222.8 326.4,244.4" fill="#3f6aa6"/><polygon points="240,244.4 240,201.2 283.2,222.8 240,244.4" fill="#c9963c"/><polygon points="240,244.4 326.4,244.4 240,287.6" fill="#3f6aa6"/><polygon points="240,244.4 240,287.6 153.6,244.4" fill="#3f6aa6"/>
<polygon points="240,201.2 326.4,244.4 240,287.6 153.6,244.4" fill="none" stroke="#e6e8ee" stroke-opacity="0.3"/>
<polygon points="412.8,244.4 326.4,244.4 412.8,201.2" fill="#3f6aa6"/><polygon points="412.8,244.4 412.8,201.2 499.2,244.4" fill="#3f6aa6"/><polygon points="412.8,244.4 499.2,244.4 412.8,287.6" fill="#3f6aa6"/><polygon points="412.8,244.4 412.8,287.6 326.4,244.4" fill="#3f6aa6"/>
<polygon points="412.8,201.2 499.2,244.4 412.8,287.6 326.4,244.4" fill="none" stroke="#e6e8ee" stroke-opacity="0.3"/>
<polygon points="-19.2,287.6 -105.6,287.6 -19.2,244.4" fill="#3f6aa6"/><polygon points="-19.2,287.6 -19.2,244.4 67.2,287.6" fill="#3f6aa6"/><polygon points="-19.2,287.6 67.2,287.6 -19.2,330.8" fill="#3f6aa6"/><polygon points="-19.2,287.6 -19.2,330.8 -105.6,287.6" fill="#3f6aa6"/>
<polygon points="-19.2,244.4 67.2,287.6 -19.2,330.8 -105.6,287.6" fill="none" stroke="#e6e8ee" stroke-opacity="0.3"/>
<polygon points="153.6,287.6 67.2,287.6 153.6,244.4" fill="#3f6aa6"/><polygon points="153.6,287.6 153.6,244.4 240,287.6" fill="#3f6aa6"/><polygon points="153.6,287.6 240,287.6 153.6,330.8" fill="#3f6aa6"/><polygon points="153.6,287.6 153.6,330.8 67.2,287.6" fill="#3f6aa6"/>
<polygon points="153.6,244.4 240,287.6 153.6,330.8 67.2,287.6" fill="none" stroke="#e6e8ee" stroke-opacity="0.3"/>
<polygon points="326.4,287.6 240,287.6 326.4,244.4" fill="#3f6aa6"/><polygon points="326.4,287.6 326.4,244.4 412.8,287.6" fill="#3f6aa6"/><polygon points="326.4,287.6 412.8,287.6 326.4,330.8" fill="#3f6aa6"/><polygon points="326.4,287.6 326.4,330.8 240,287.6" fill="#3f6aa6"/>
<polygon points="326.4,244.4 412.8,287.6 326.4,330.8 240,287.6" fill="none" stroke="#e6e8ee" stroke-opacity="0.3"/>
<polygon points="499.2,287.6 412.8,287.6 499.2,244.4" fill="#3f6aa6"/><polygon points="499.2,287.6 499.2,244.4 585.6,287.6" fill="#3f6aa6"/><polygon points="499.2,287.6 585.6,287.6 499.2,330.8" fill="#3f6aa6"/><polygon points="499.2,287.6 499.2,330.8 412.8,287.6" fill="#3f6aa6"/>
<polygon points="499.2,244.4 585.6,287.6 499.2,330.8 412.8,287.6" fill="none" stroke="#e6e8ee" stroke-opacity="0.3"/>
<g stroke="#0a0c10" stroke-width="3.5" stroke-linecap="round"><line x1="240" y1="71.6" x2="283.2" y2="93.2"/><line x1="240" y1="71.6" x2="196.8" y2="93.2"/><line x1="153.6" y1="114.8" x2="196.8" y2="93.2"/><line x1="153.6" y1="114.8" x2="110.4" y2="136.4"/><line x1="326.4" y1="114.8" x2="283.2" y2="93.2"/><line x1="326.4" y1="114.8" x2="369.6" y2="136.4"/><line x1="67.2" y1="158" x2="110.4" y2="136.4"/><line x1="67.2" y1="158" x2="110.4" y2="179.6"/><line x1="412.8" y1="158" x2="369.6" y2="136.4"/><line x1="412.8" y1="158" x2="369.6" y2="179.6"/><line x1="153.6" y1="201.2" x2="110.4" y2="179.6"/><line x1="153.6" y1="201.2" x2="196.8" y2="222.8"/><line x1="326.4" y1="201.2" x2="369.6" y2="179.6"/><line x1="326.4" y1="201.2" x2="283.2" y2="222.8"/><line x1="240" y1="244.4" x2="196.8" y2="222.8"/><line x1="240" y1="244.4" x2="283.2" y2="222.8"/></g>
<rect x="52.2" y="61.6" width="30" height="20" rx="4" fill="#12151b" fill-opacity="0.85"/><text x="67.2" y="76.6" font-size="13" fill="#e6e8ee" text-anchor="middle" font-weight="600">1</text><rect x="225" y="61.6" width="30" height="20" rx="4" fill="#12151b" fill-opacity="0.85"/><text x="240" y="76.6" font-size="13" fill="#e6e8ee" text-anchor="middle" font-weight="600">21</text><rect x="397.8" y="61.6" width="30" height="20" rx="4" fill="#12151b" fill-opacity="0.85"/><text x="412.8" y="76.6" font-size="13" fill="#e6e8ee" text-anchor="middle" font-weight="600">1</text><rect x="138.6" y="104.8" width="30" height="20" rx="4" fill="#12151b" fill-opacity="0.85"/><text x="153.6" y="119.8" font-size="13" fill="#e6e8ee" text-anchor="middle" font-weight="600">17</text><rect x="311.4" y="104.8" width="30" height="20" rx="4" fill="#12151b" fill-opacity="0.85"/><text x="326.4" y="119.8" font-size="13" fill="#e6e8ee" text-anchor="middle" font-weight="600">18</text><rect x="52.2" y="148" width="30" height="20" rx="4" fill="#12151b" fill-opacity="0.85"/><text x="67.2" y="163" font-size="13" fill="#e6e8ee" text-anchor="middle" font-weight="600">24</text><rect x="225" y="148" width="30" height="20" rx="4" fill="#12151b" fill-opacity="0.85"/><text x="240" y="163" font-size="13" fill="#e6e8ee" text-anchor="middle" font-weight="600">2</text><rect x="397.8" y="148" width="30" height="20" rx="4" fill="#12151b" fill-opacity="0.85"/><text x="412.8" y="163" font-size="13" fill="#e6e8ee" text-anchor="middle" font-weight="600">22</text><rect x="138.6" y="191.2" width="30" height="20" rx="4" fill="#12151b" fill-opacity="0.85"/><text x="153.6" y="206.2" font-size="13" fill="#e6e8ee" text-anchor="middle" font-weight="600">20</text><rect x="311.4" y="191.2" width="30" height="20" rx="4" fill="#12151b" fill-opacity="0.85"/><text x="326.4" y="206.2" font-size="13" fill="#e6e8ee" text-anchor="middle" font-weight="600">19</text><rect x="52.2" y="234.4" width="30" height="20" rx="4" fill="#12151b" fill-opacity="0.85"/><text x="67.2" y="249.4" font-size="13" fill="#e6e8ee" text-anchor="middle" font-weight="600">1</text><rect x="225" y="234.4" width="30" height="20" rx="4" fill="#12151b" fill-opacity="0.85"/><text x="240" y="249.4" font-size="13" fill="#e6e8ee" text-anchor="middle" font-weight="600">23</text><rect x="397.8" y="234.4" width="30" height="20" rx="4" fill="#12151b" fill-opacity="0.85"/><text x="412.8" y="249.4" font-size="13" fill="#e6e8ee" text-anchor="middle" font-weight="600">1</text>
</g>
<rect x="24" y="50" width="432" height="216" fill="none" stroke="#4b5363"/>
<text x="484" y="62" font-size="13" fill="#e6e8ee" text-anchor="start" font-weight="600">Values</text>
<text x="484" y="88" font-size="12" fill="#e7c160" text-anchor="start">1</text>
<text x="540" y="88" font-size="12" fill="#e6e8ee" text-anchor="start">Dirt, flat</text>
<text x="484" y="108" font-size="12" fill="#e7c160" text-anchor="start">2</text>
<text x="540" y="108" font-size="12" fill="#e6e8ee" text-anchor="start">High Dirt, flat</text>
<text x="484" y="128" font-size="12" fill="#e7c160" text-anchor="start">17–30</text>
<text x="540" y="128" font-size="12" fill="#e6e8ee" text-anchor="start">the cliff between them:</text>
<text x="484" y="148" font-size="12" fill="#e7c160" text-anchor="start"></text>
<text x="540" y="148" font-size="12" fill="#e6e8ee" text-anchor="start">its first value, 17, + the shape</text>
<text x="484" y="186" font-size="12" fill="#e7c160" text-anchor="start">17–20</text>
<text x="540" y="186" font-size="12" fill="#e6e8ee" text-anchor="start">the four edges around the centre</text>
<text x="484" y="206" font-size="12" fill="#e7c160" text-anchor="start">21–24</text>
<text x="540" y="206" font-size="12" fill="#e6e8ee" text-anchor="start">the corners of the High Dirt</text>
</svg>
